<mxfile host="app.diagrams.net" modified="2022-05-09T14:07:15.910Z" agent="5.0 (Windows NT 10.0; Win64; x64) AppleWebKit/537.36 (KHTML, like Gecko) Chrome/101.0.4951.54 Safari/537.36 Edg/101.0.1210.39" etag="2QEj9bZ_m7Uh7dG9Yx0v" version="18.0.1" type="github">
  <diagram id="MdBNKJpqr_o3EYQhVp5a" name="Page-1">
    <mxGraphModel dx="1038" dy="579" grid="1" gridSize="10" guides="1" tooltips="1" connect="1" arrows="1" fold="1" page="1" pageScale="1" pageWidth="850" pageHeight="1100" math="0" shadow="0">
      <root>
        <mxCell id="0" />
        <mxCell id="1" parent="0" />
        <mxCell id="XoBNEWkeZHQ15HXKrVv_-3" value="" style="edgeStyle=orthogonalEdgeStyle;rounded=0;orthogonalLoop=1;jettySize=auto;html=1;" edge="1" parent="1" source="XoBNEWkeZHQ15HXKrVv_-1" target="XoBNEWkeZHQ15HXKrVv_-2">
          <mxGeometry relative="1" as="geometry" />
        </mxCell>
        <mxCell id="XoBNEWkeZHQ15HXKrVv_-1" value="start" style="rounded=1;whiteSpace=wrap;html=1;" vertex="1" parent="1">
          <mxGeometry x="40" y="40" width="90" height="20" as="geometry" />
        </mxCell>
        <mxCell id="XoBNEWkeZHQ15HXKrVv_-5" value="" style="edgeStyle=orthogonalEdgeStyle;rounded=0;orthogonalLoop=1;jettySize=auto;html=1;" edge="1" parent="1" source="XoBNEWkeZHQ15HXKrVv_-2" target="XoBNEWkeZHQ15HXKrVv_-4">
          <mxGeometry relative="1" as="geometry" />
        </mxCell>
        <mxCell id="XoBNEWkeZHQ15HXKrVv_-34" value="" style="edgeStyle=orthogonalEdgeStyle;rounded=0;orthogonalLoop=1;jettySize=auto;html=1;" edge="1" parent="1" source="XoBNEWkeZHQ15HXKrVv_-2" target="XoBNEWkeZHQ15HXKrVv_-33">
          <mxGeometry relative="1" as="geometry" />
        </mxCell>
        <mxCell id="XoBNEWkeZHQ15HXKrVv_-2" value="TRY&amp;nbsp;" style="shape=process;whiteSpace=wrap;html=1;backgroundOutline=1;" vertex="1" parent="1">
          <mxGeometry x="25" y="110" width="120" height="60" as="geometry" />
        </mxCell>
        <mxCell id="XoBNEWkeZHQ15HXKrVv_-7" value="yes" style="edgeStyle=orthogonalEdgeStyle;rounded=0;orthogonalLoop=1;jettySize=auto;html=1;" edge="1" parent="1" source="XoBNEWkeZHQ15HXKrVv_-4" target="XoBNEWkeZHQ15HXKrVv_-6">
          <mxGeometry relative="1" as="geometry" />
        </mxCell>
        <mxCell id="XoBNEWkeZHQ15HXKrVv_-26" value="" style="edgeStyle=orthogonalEdgeStyle;rounded=0;orthogonalLoop=1;jettySize=auto;html=1;" edge="1" parent="1" source="XoBNEWkeZHQ15HXKrVv_-4" target="XoBNEWkeZHQ15HXKrVv_-25">
          <mxGeometry relative="1" as="geometry">
            <Array as="points">
              <mxPoint x="250" y="30" />
              <mxPoint x="540" y="30" />
            </Array>
          </mxGeometry>
        </mxCell>
        <mxCell id="XoBNEWkeZHQ15HXKrVv_-27" value="NO" style="edgeLabel;html=1;align=center;verticalAlign=middle;resizable=0;points=[];" vertex="1" connectable="0" parent="XoBNEWkeZHQ15HXKrVv_-26">
          <mxGeometry x="0.489" relative="1" as="geometry">
            <mxPoint as="offset" />
          </mxGeometry>
        </mxCell>
        <mxCell id="XoBNEWkeZHQ15HXKrVv_-4" value="IF sight and attack not undefined" style="rhombus;whiteSpace=wrap;html=1;" vertex="1" parent="1">
          <mxGeometry x="210" y="40" width="80" height="80" as="geometry" />
        </mxCell>
        <mxCell id="XoBNEWkeZHQ15HXKrVv_-13" value="" style="edgeStyle=orthogonalEdgeStyle;rounded=0;orthogonalLoop=1;jettySize=auto;html=1;" edge="1" parent="1" source="XoBNEWkeZHQ15HXKrVv_-6" target="XoBNEWkeZHQ15HXKrVv_-12">
          <mxGeometry relative="1" as="geometry" />
        </mxCell>
        <mxCell id="XoBNEWkeZHQ15HXKrVv_-6" value="get the collision radius of agent" style="whiteSpace=wrap;html=1;" vertex="1" parent="1">
          <mxGeometry x="190" y="160" width="120" height="60" as="geometry" />
        </mxCell>
        <mxCell id="XoBNEWkeZHQ15HXKrVv_-16" value="" style="edgeStyle=orthogonalEdgeStyle;rounded=0;orthogonalLoop=1;jettySize=auto;html=1;" edge="1" parent="1" source="XoBNEWkeZHQ15HXKrVv_-12" target="XoBNEWkeZHQ15HXKrVv_-15">
          <mxGeometry relative="1" as="geometry" />
        </mxCell>
        <mxCell id="XoBNEWkeZHQ15HXKrVv_-12" value="call&amp;nbsp;getAttackandFar&lt;br&gt;AgentsFromRvo" style="rounded=1;whiteSpace=wrap;html=1;fillColor=#d5e8d4;gradientColor=#97d077;strokeColor=#82b366;" vertex="1" parent="1">
          <mxGeometry x="190" y="250" width="120" height="60" as="geometry" />
        </mxCell>
        <mxCell id="XoBNEWkeZHQ15HXKrVv_-18" value="yes" style="edgeStyle=orthogonalEdgeStyle;rounded=0;orthogonalLoop=1;jettySize=auto;html=1;" edge="1" parent="1" source="XoBNEWkeZHQ15HXKrVv_-15" target="XoBNEWkeZHQ15HXKrVv_-17">
          <mxGeometry relative="1" as="geometry" />
        </mxCell>
        <mxCell id="XoBNEWkeZHQ15HXKrVv_-20" value="" style="edgeStyle=orthogonalEdgeStyle;rounded=0;orthogonalLoop=1;jettySize=auto;html=1;" edge="1" parent="1" source="XoBNEWkeZHQ15HXKrVv_-15" target="XoBNEWkeZHQ15HXKrVv_-19">
          <mxGeometry relative="1" as="geometry">
            <Array as="points">
              <mxPoint x="330" y="390" />
              <mxPoint x="330" y="80" />
            </Array>
          </mxGeometry>
        </mxCell>
        <mxCell id="XoBNEWkeZHQ15HXKrVv_-15" value="IF sight rng not empty" style="rhombus;whiteSpace=wrap;html=1;" vertex="1" parent="1">
          <mxGeometry x="210" y="350" width="80" height="80" as="geometry" />
        </mxCell>
        <mxCell id="XoBNEWkeZHQ15HXKrVv_-17" value="call&amp;nbsp;filterAgentBy&lt;br&gt;AttckDmhn" style="rounded=1;whiteSpace=wrap;html=1;fillColor=#d5e8d4;gradientColor=#97d077;strokeColor=#82b366;" vertex="1" parent="1">
          <mxGeometry x="190" y="460" width="120" height="60" as="geometry" />
        </mxCell>
        <mxCell id="XoBNEWkeZHQ15HXKrVv_-22" value="" style="edgeStyle=orthogonalEdgeStyle;rounded=0;orthogonalLoop=1;jettySize=auto;html=1;" edge="1" parent="1" source="XoBNEWkeZHQ15HXKrVv_-19" target="XoBNEWkeZHQ15HXKrVv_-21">
          <mxGeometry relative="1" as="geometry" />
        </mxCell>
        <mxCell id="XoBNEWkeZHQ15HXKrVv_-19" value="ELSE" style="rhombus;whiteSpace=wrap;html=1;" vertex="1" parent="1">
          <mxGeometry x="360" y="40" width="80" height="80" as="geometry" />
        </mxCell>
        <mxCell id="XoBNEWkeZHQ15HXKrVv_-24" value="" style="edgeStyle=orthogonalEdgeStyle;rounded=0;orthogonalLoop=1;jettySize=auto;html=1;" edge="1" parent="1" source="XoBNEWkeZHQ15HXKrVv_-21" target="XoBNEWkeZHQ15HXKrVv_-23">
          <mxGeometry relative="1" as="geometry" />
        </mxCell>
        <mxCell id="XoBNEWkeZHQ15HXKrVv_-21" value="set the sight and attack rng agent object" style="whiteSpace=wrap;html=1;" vertex="1" parent="1">
          <mxGeometry x="340" y="170" width="120" height="60" as="geometry" />
        </mxCell>
        <mxCell id="XoBNEWkeZHQ15HXKrVv_-31" value="" style="edgeStyle=orthogonalEdgeStyle;rounded=0;orthogonalLoop=1;jettySize=auto;html=1;" edge="1" parent="1" source="XoBNEWkeZHQ15HXKrVv_-23" target="XoBNEWkeZHQ15HXKrVv_-30">
          <mxGeometry relative="1" as="geometry" />
        </mxCell>
        <mxCell id="XoBNEWkeZHQ15HXKrVv_-23" value="return the search result" style="whiteSpace=wrap;html=1;" vertex="1" parent="1">
          <mxGeometry x="340" y="290" width="120" height="60" as="geometry" />
        </mxCell>
        <mxCell id="XoBNEWkeZHQ15HXKrVv_-29" value="" style="edgeStyle=orthogonalEdgeStyle;rounded=0;orthogonalLoop=1;jettySize=auto;html=1;" edge="1" parent="1" source="XoBNEWkeZHQ15HXKrVv_-25" target="XoBNEWkeZHQ15HXKrVv_-28">
          <mxGeometry relative="1" as="geometry" />
        </mxCell>
        <mxCell id="XoBNEWkeZHQ15HXKrVv_-25" value="ELSE&amp;nbsp;" style="rhombus;whiteSpace=wrap;html=1;" vertex="1" parent="1">
          <mxGeometry x="500" y="40" width="80" height="80" as="geometry" />
        </mxCell>
        <mxCell id="XoBNEWkeZHQ15HXKrVv_-32" style="edgeStyle=orthogonalEdgeStyle;rounded=0;orthogonalLoop=1;jettySize=auto;html=1;entryX=0.5;entryY=0;entryDx=0;entryDy=0;" edge="1" parent="1" source="XoBNEWkeZHQ15HXKrVv_-28" target="XoBNEWkeZHQ15HXKrVv_-30">
          <mxGeometry relative="1" as="geometry" />
        </mxCell>
        <mxCell id="XoBNEWkeZHQ15HXKrVv_-28" value="User console" style="whiteSpace=wrap;html=1;" vertex="1" parent="1">
          <mxGeometry x="480" y="160" width="120" height="60" as="geometry" />
        </mxCell>
        <mxCell id="XoBNEWkeZHQ15HXKrVv_-30" value="end" style="ellipse;whiteSpace=wrap;html=1;" vertex="1" parent="1">
          <mxGeometry x="460" y="400" width="120" height="60" as="geometry" />
        </mxCell>
        <mxCell id="XoBNEWkeZHQ15HXKrVv_-33" value="CATCH" style="shape=process;whiteSpace=wrap;html=1;backgroundOutline=1;" vertex="1" parent="1">
          <mxGeometry x="25" y="250" width="120" height="60" as="geometry" />
        </mxCell>
      </root>
    </mxGraphModel>
  </diagram>
</mxfile>
